<svg xmlns="http://www.w3.org/2000/svg" xmlns:xlink="http://www.w3.org/1999/xlink" width="32" height="32" version="1.1" viewBox="0 0 32 32"><defs id="defs5455"><linearGradient id="linearGradient4207"><stop style="stop-color:#814b13" id="stop4209"/><stop offset="1" style="stop-color:#9d5b17" id="stop4211"/></linearGradient><linearGradient id="linearGradient4143"><stop style="stop-color:#fdc95f" id="stop4145"/><stop offset="1" style="stop-color:#fdd583" id="stop4147"/></linearGradient><linearGradient id="linearGradient4149" x2="0" y1="545.798" y2="517.798" gradientTransform="matrix(1 0 0 1 -0.000017 0.000013)" gradientUnits="userSpaceOnUse" xlink:href="#linearGradient4143"/><linearGradient id="linearGradient4213" x2="0" y1="538.798" y2="534.798" gradientUnits="userSpaceOnUse" xlink:href="#linearGradient4207"/><linearGradient id="linearGradient4221" x2="0" y1="528.798" y2="524.798" gradientUnits="userSpaceOnUse" xlink:href="#linearGradient4207"/></defs><metadata id="metadata5458"/><g id="layer1" transform="matrix(1 0 0 1 -384.57143 -515.798)"><rect id="rect4130" width="28" height="28" x="386.571" y="517.798" rx="14" ry="14" style="fill:url(#linearGradient4149)"/><ellipse cx="395.571" cy="526.798" rx="2" ry="2" style="fill:url(#linearGradient4221);stroke-width:5.03937" id="path4184"/><ellipse cx="405.572" cy="526.798" rx="2" ry="2" style="fill:url(#linearGradient4221);stroke-width:5.03935" id="circle4186"/><path style="fill:url(#linearGradient4213);stroke-width:1.231256" id="path4229" d="m 395.24526,535.10422 a 6.1562779,7.3875605 0 0 0 5.32662,3.69378 6.1562779,7.3875605 0 0 0 5.32182,-3.69378 l -0.7479,0 a 6.1562779,7.3875605 0 0 1 -4.57392,2.46253 6.1562779,7.3875605 0 0 1 -4.57633,-2.46253 l -0.75029,0 z"/></g></svg>