<svg xmlns="http://www.w3.org/2000/svg" xmlns:xlink="http://www.w3.org/1999/xlink" width="22" height="22" version="1.1"><defs id="defs3871"><linearGradient id="linearGradient4300-8"><stop style="stop-color:#f27935" id="stop4302-5"/><stop offset="1" style="stop-color:#f2784b" id="stop4304-7"/></linearGradient><linearGradient id="linearGradient4357" x2="0" y1="61" y2="47" gradientUnits="userSpaceOnUse" xlink:href="#linearGradient4351"/><linearGradient id="linearGradient4410"><stop style="stop-color:#383e51" id="stop4412"/><stop offset="1" style="stop-color:#655c6f;stop-opacity:0" id="stop4414"/></linearGradient><linearGradient id="linearGradient4427" x1="54" x2="40" y1="31" y2="17" gradientTransform="matrix(1 0 0 -1 -14 78)" gradientUnits="userSpaceOnUse" xlink:href="#linearGradient4410"/><linearGradient id="linearGradient4306" x2="0" y1="61" y2="3" gradientUnits="userSpaceOnUse" xlink:href="#linearGradient4300-8"/><linearGradient id="linearGradient4351"><stop style="stop-color:#f7ab89" id="stop4353"/><stop offset="1" style="stop-color:#f9bda3" id="stop4355"/></linearGradient><linearGradient id="linearGradient3444" x1="54" x2="40" y1="31" y2="17" gradientTransform="matrix(1 0 0 -1 503.93261 656.69754)" gradientUnits="userSpaceOnUse" xlink:href="#linearGradient4410"/><linearGradient id="linearGradient3447" x2="0" y1="61" y2="47" gradientTransform="matrix(1 0 0 1 517.93261 578.69754)" gradientUnits="userSpaceOnUse" xlink:href="#linearGradient4351"/><linearGradient id="linearGradient3452" x2="0" y1="61" y2="3" gradientTransform="matrix(1 0 0 1 517.93261 578.69754)" gradientUnits="userSpaceOnUse" xlink:href="#linearGradient4300-8"/></defs><metadata id="metadata3874"/><g id="layer1" transform="matrix(1 0 0 1 -326 -534.3622)"><rect id="rect4035" width="0" height="14.668" x="256.226" y="514.698" style="fill:#cf000f"/><rect id="rect4035-8" width="0" height="14.668" x="263.186" y="537.268" style="fill:#cf000f"/><rect id="rect4035-0" width="0" height="14.668" x="264.999" y="536.207" style="fill:#cf000f"/><rect id="rect4035-3" width="0" height="14.668" x="256.226" y="514.698" style="fill:#cf000f"/><rect id="rect4035-8-9" width="0" height="14.668" x="263.186" y="537.268" style="fill:#cf000f"/><rect id="rect4035-0-4" width="0" height="14.668" x="264.999" y="536.207" style="fill:#cf000f"/><rect id="rect4035-2" width="0" height="14.668" x="256.226" y="514.698" style="fill:#cf000f"/><rect id="rect4035-8-99" width="0" height="14.668" x="263.186" y="537.268" style="fill:#cf000f"/><rect id="rect4035-0-43" width="0" height="14.668" x="264.999" y="536.207" style="fill:#cf000f"/><rect id="rect4035-3-9" width="0" height="14.668" x="256.226" y="514.698" style="fill:#cf000f"/><rect id="rect4035-8-9-9" width="0" height="14.668" x="263.186" y="537.268" style="fill:#cf000f"/><rect id="rect4035-0-4-4" width="0" height="14.668" x="264.999" y="536.207" style="fill:#cf000f"/><rect id="rect4035-6" width="0" height="14.668" x="273.382" y="518.479" style="fill:#cf000f"/><rect id="rect4035-8-8" width="0" height="14.668" x="280.342" y="541.049" style="fill:#cf000f"/><rect id="rect4035-0-6" width="0" height="14.668" x="282.156" y="539.989" style="fill:#cf000f"/><g style="fill:#f27935" id="layer1-1" transform="matrix(1 0 0 1 -225.28572 -73.28571)"><path style="color:#000" id="path3454" d="m 563.78571,610.64791 -4,15.75384 1,0.24616 4,-15.75385 -1,-0.24615 z"/><path style="color:#000" id="path4224" d="m 566.03107,613.64791 -0.74534,0.70967 3.66459,4.29032 -3.66459,4.29033 0.74534,0.70968 3.97515,-4.64516 0.27951,-0.35485 -0.27951,-0.35483 -3.97515,-4.64516 z"/><path style="color:#000" id="path4224-7" d="m 558.54037,613.64791 0.74534,0.70967 -3.66459,4.29032 3.66459,4.29033 -0.74534,0.70968 -3.97515,-4.64516 -0.27951,-0.35485 0.27951,-0.35483 3.97515,-4.64516 z"/></g></g></svg>