<svg xmlns="http://www.w3.org/2000/svg" xmlns:svg="http://www.w3.org/2000/svg" id="svg3869" width="24" height="24" version="1.1"><defs id="defs3871"><linearGradient id="linearGradient3257"><stop offset="0" style="stop-color:#a50000;stop-opacity:1" id="stop3259"/><stop offset="1" style="stop-color:#e73800;stop-opacity:1" id="stop3261"/></linearGradient><clipPath id="clipPath4210" clipPathUnits="userSpaceOnUse"><rect id="rect4212" width="34" height="34" x="-7" y="1024.362" style="opacity:1;fill:#00f;fill-opacity:.51376145;stroke:none;stroke-opacity:1"/></clipPath><clipPath id="clipPath4160" clipPathUnits="userSpaceOnUse"><rect style="opacity:1;fill:#aade87;fill-opacity:.47247709;stroke:none;stroke-opacity:1" id="rect4162" width="32" height="32" x="-6" y="1028.362"/></clipPath></defs><metadata id="metadata3874"/><g id="layer1" transform="translate(-326,-532.3622)"><g id="layer1-1" transform="translate(-217.57141,-209.57139)"><path id="rect4134" d="M 3,3 3,4 3,11 4,11 4,4 9,4 9,3 4,3 3,3 Z m 9,0 2,2 -4,7 7,-4 2,2 0,-7 -7,0 z m -9,10 0,6 6,0 0,-6 -6,0 z m 15,0 0,5 -7,0 0,1 8,0 0,-1 0,-5 -1,0 z m -14,1 4,0 0,4 -4,0 0,-4 z" transform="translate(544.57141,742.93359)" style="opacity:1;fill:#4d4d4d;fill-opacity:1;stroke:none"/></g></g></svg>