<svg xmlns="http://www.w3.org/2000/svg" xmlns:svg="http://www.w3.org/2000/svg" id="svg2" version="1.1" viewBox="0 0 16 16"><metadata id="metadata10"/><defs id="defs3051"><style id="current-color-scheme" type="text/css"/></defs><g id="layer1"><path id="path3381" d="m 13.397328,2.3992772 0,11.2014458 -7.6986353,0 -3.2994103,-3.360427 0,-7.8410188 z" style="color:#000;display:inline;overflow:visible;visibility:visible;opacity:1;fill:none;fill-opacity:1;fill-rule:nonzero;stroke:#f2f2f2;stroke-width:.83244693;stroke-miterlimit:4;stroke-dasharray:none;stroke-opacity:1;marker:none;enable-background:accumulate;stroke-linejoin:miter"/><path id="path3387" d="m 2.3992706,10.240296 3.2994221,3.360427 0,-3.360427 z" style="display:inline;opacity:1;fill:#f2f2f2;fill-rule:evenodd;stroke:none;stroke-width:.55496466;stroke-linecap:butt;stroke-linejoin:round;stroke-miterlimit:4;stroke-dasharray:none;stroke-opacity:1;enable-background:new;fill-opacity:1"/><path style="color:#4d4d4d;clip-rule:nonzero;display:inline;overflow:visible;visibility:visible;opacity:1;isolation:auto;mix-blend-mode:normal;color-interpolation:sRGB;color-interpolation-filters:linearRGB;solid-color:#000;solid-opacity:1;fill:none;fill-opacity:1;fill-rule:nonzero;stroke:#3daee9;stroke-width:.64999998;stroke-linecap:round;stroke-linejoin:round;stroke-miterlimit:2.5999999;stroke-dasharray:none;stroke-dashoffset:0;stroke-opacity:1;color-rendering:auto;image-rendering:auto;shape-rendering:auto;text-rendering:auto;enable-background:accumulate" id="path4225" d="M 7.8545215,5.894937 A 1.7106408,1.7422758 0 0 0 6.1438869,7.6372184 1.7106408,1.7422758 0 0 0 6.1635129,7.8865992 1.2218863,1.2444827 0 0 0 6.1438869,7.8860332 1.2218863,1.2444827 0 0 0 4.922,9.130529 1.2218863,1.2444827 0 0 0 6.1438869,10.375 l 3.1769012,0 A 1.4662636,1.4933793 0 0 0 10.787054,8.88163 1.4662636,1.4933793 0 0 0 9.5484621,7.4076942 1.7106408,1.7422758 0 0 0 7.8545215,5.8948647 Z m 0,0.2488991 a 1.4662636,1.4933793 0 0 1 0.1465333,0.00722 1.4662636,1.4933793 0 0 1 0.6811065,0.2537518 1.4662636,1.4933793 0 0 1 5.557e-4,0 1.4662636,1.4933793 0 0 1 0.3202711,0.3038327 1.4662636,1.4933793 0 0 1 0,5.539e-4 1.4662636,1.4933793 0 0 1 0.2968735,0.6800953 1.4662636,1.4933793 0 0 1 0.020926,0.2479117 1.2218863,1.2444827 0 0 1 0.2434221,0.024806 1.2218863,1.2444827 0 0 1 0.1178745,0.030586 1.2218863,1.2444827 0 0 1 5.557e-4,0 1.2218863,1.2444827 0 0 1 0.1140912,0.042747 1.2218863,1.2444827 0 0 1 5.557e-4,0 1.2218863,1.2444827 0 0 1 0.1093622,0.053946 1.2218863,1.2444827 0 0 1 0.0011,5.66e-4 1.2218863,1.2444827 0 0 1 0.103095,0.064663 1.2218863,1.2444827 0 0 1 0.0011,5.659e-4 1.2218863,1.2444827 0 0 1 0.09636,0.074898 1.2218863,1.2444827 0 0 1 5.44e-4,5.539e-4 1.2218863,1.2444827 0 0 1 0.08879,0.08405 1.2218863,1.2444827 0 0 1 5.44e-4,5.66e-4 1.2218863,1.2444827 0 0 1 0.15131,0.1944471 1.2218863,1.2444827 0 0 1 5.44e-4,5.66e-4 1.2218863,1.2444827 0 0 1 0.06018,0.1074106 1.2218863,1.2444827 0 0 1 5.55e-4,5.54e-4 1.2218863,1.2444827 0 0 1 0.04966,0.112829 1.2218863,1.2444827 0 0 1 5.56e-4,5.66e-4 1.2218863,1.2444827 0 0 1 0.03819,0.117647 1.2218863,1.2444827 0 0 1 0,5.53e-4 1.2218863,1.2444827 0 0 1 0.02672,0.121054 1.2218863,1.2444827 0 0 1 0,5.54e-4 1.2218863,1.2444827 0 0 1 0.01478,0.122993 1.2218863,1.2444827 0 0 1 0.0024,0.0879 1.2218863,1.2444827 0 0 1 -1.2218857,1.244483 l -3.1769012,0 a 0.97750904,0.99558618 0 0 1 -0.9775189,-0.995584 0.97750904,0.99558618 0 0 1 0.00473,-0.09922 0.97750904,0.99558618 0 0 1 0.9727307,-0.8964102 0.97750904,0.99558618 0 0 1 0.073066,0.00361 0.97750904,0.99558618 0 0 1 0,5.539e-4 0.97750904,0.99558618 0 0 1 0.2825677,0.065145 1.4662636,1.4933793 0 0 1 -0.083588,-0.2853609 1.4662636,1.4933793 0 0 1 -0.018089,-0.1263883 1.4662636,1.4933793 0 0 1 -0.00355,-0.028659 1.4662636,1.4933793 0 0 1 -0.00591,-0.1264003 1.4662636,1.4933793 0 0 1 0.00709,-0.1492431 1.4662636,1.4933793 0 0 1 1.459102,-1.3441392 z"/><rect id="rect3393" width="10.998" height="1.508" x="2.399" y="-4.105" transform="scale(1,-1)" style="color:#4d4d4d;clip-rule:nonzero;display:inline;overflow:visible;visibility:visible;opacity:1;isolation:auto;mix-blend-mode:normal;color-interpolation:sRGB;color-interpolation-filters:linearRGB;solid-color:#000;solid-opacity:1;fill:#f2f2f2;fill-opacity:1;fill-rule:nonzero;stroke:none;stroke-width:1;stroke-linecap:square;stroke-linejoin:miter;stroke-miterlimit:4;stroke-dasharray:none;stroke-dashoffset:0;stroke-opacity:1;color-rendering:auto;image-rendering:auto;shape-rendering:auto;text-rendering:auto;enable-background:accumulate"/></g></svg>